<svg xmlns="http://www.w3.org/2000/svg" width="218" height="36" viewBox="0 0 218 36">
    <path fill="#B0B8C3" fill-rule="nonzero" d="M48.154 28.876h-4.973V8.478h4.973v20.398zM68.331 9.245l-.353 4.316c-1.349-.852-2.973-1.279-4.877-1.279-1.903 0-3.496.592-4.78 1.775-1.283 1.183-1.924 2.723-1.924 4.62 0 1.897.652 3.431 1.957 4.603 1.304 1.172 2.94 1.759 4.908 1.759 2.117 0 3.795-.405 5.035-1.215l-.417 4.444c-1.24.725-3.026 1.088-5.356 1.088-1.369 0-2.711-.236-4.027-.704a12.148 12.148 0 0 1-3.576-1.998c-1.069-.864-1.93-1.988-2.582-3.374-.653-1.385-.979-2.92-.979-4.603 0-2.238.566-4.188 1.701-5.851 1.133-1.663 2.528-2.883 4.186-3.66a12.26 12.26 0 0 1 5.277-1.168c2.437 0 4.373.415 5.807 1.247zm24.089 9.4c0 3.176-1.096 5.754-3.287 7.737-2.193 1.982-4.775 2.974-7.747 2.974-2.951 0-5.524-.992-7.715-2.974-2.192-1.983-3.288-4.561-3.288-7.737 0-3.134 1.096-5.691 3.288-7.674 2.191-1.981 4.764-2.973 7.715-2.973 1.903 0 3.688.428 5.356 1.28 1.669.851 3.031 2.105 4.09 3.757 1.058 1.65 1.588 3.52 1.588 5.61zm-5.037 0c0-1.833-.598-3.342-1.796-4.525-1.198-1.182-2.597-1.774-4.202-1.774-1.604 0-3 .592-4.185 1.774-1.189 1.183-1.781 2.692-1.781 4.525 0 1.854.592 3.372 1.78 4.556 1.187 1.181 2.582 1.774 4.186 1.774 1.605 0 3.004-.592 4.202-1.774 1.198-1.184 1.796-2.702 1.796-4.556zM114.522 29.1h-2.503l-7.955-8.697a99.52 99.52 0 0 1-3.818-4.475l-.064.032c.064 1.45.097 2.878.097 4.284v8.633h-4.972V8.478h4.01l6.928 7.61a69.226 69.226 0 0 1 3.336 3.9l.064-.033a72.032 72.032 0 0 1-.096-3.804V8.478h4.973V29.1zm15.748-16.56h-7.249v4.06h5.967v4.124h-5.967v8.153h-4.97V8.478h12.22v4.06zm7.538 16.337h-4.973V8.478h4.973v20.398zm23.064.223h-2.502l-7.956-8.697c-1.112-1.215-2.384-2.705-3.818-4.475l-.063.032c.063 1.45.096 2.878.096 4.284v8.633h-4.971V8.478h4.01l6.928 7.61a69.254 69.254 0 0 1 3.336 3.9l.064-.033a72.592 72.592 0 0 1-.098-3.804V8.478h4.973V29.1zm18.203-17.839c2.127 1.853 3.192 4.327 3.192 7.417s-1.065 5.563-3.192 7.417c-2.128 1.854-4.722 2.782-7.778 2.782H164.4V8.478h6.897c3.057 0 5.65.927 7.778 2.782zm-3.656 11.812c1.25-1.033 1.876-2.498 1.876-4.396 0-1.897-.626-3.362-1.876-4.396-1.251-1.033-2.818-1.55-4.7-1.55h-1.54v11.893h1.54c1.882 0 3.448-.517 4.7-1.551zm22.565 5.804h-12.83V8.478h11.932v4.06h-6.96V16.6h5.677v4.124h-5.678v4.092h7.86v4.06zm20.016 0h-5.55l-5.517-8.027h-1.763v8.027h-4.78V8.478h7.634c1.817 0 3.373.565 4.667 1.694 1.294 1.13 1.94 2.622 1.94 4.477 0 1.15-.3 2.184-.898 3.1-.599.916-1.346 1.588-2.245 2.015L218 28.876zm-8.148-14.227c0-.725-.252-1.285-.754-1.68-.502-.394-1.107-.59-1.812-.59h-2.116v4.571h2.116c.705 0 1.31-.196 1.812-.592.502-.393.754-.964.754-1.71zm-193.86.834a5.668 5.668 0 0 1 2.206-.446c3.125 0 5.658 2.526 5.658 5.64 0 3.115-2.533 5.638-5.658 5.638-3.124 0-5.657-2.523-5.657-5.639 0-.78.158-1.523.447-2.2a2.354 2.354 0 0 0 2.224 1.574 2.35 2.35 0 1 0 .78-4.567zM13.49 7.051a14.52 14.52 0 0 1 12.354 1.39c7.743 4.694 11.585 13.858 10.323 22.574 0 0-2.986 2.526-7.491 3.93a.685.685 0 0 1-.551-.048c-.263-.152-.334-.46-.178-.73a.877.877 0 0 1 .169-.187c1.081-.887 1.986-1.99 2.727-3.271a11.957 11.957 0 0 0 1.553-7.281l-.002-.005a14.379 14.379 0 0 1-6.964 9.734c-8.022 4.616-18.13 3.404-25.196-2.14 0 0-.702-3.84.332-8.43a.67.67 0 0 1 .316-.451c.265-.152.566-.06.722.21.026.044.065.15.08.24.23 1.375.735 2.709 1.478 3.99a12.019 12.019 0 0 0 5.549 4.98 14.402 14.402 0 0 1-3.033-3.674 14.296 14.296 0 0 1-1.933-7.605C3.917 11.212 9.969 3.279 18.198 0c0 0 3.687 1.315 7.16 4.5a.681.681 0 0 1 .234.5c-.002.304-.232.519-.544.519a.93.93 0 0 1-.25-.05c-1.31-.491-2.72-.721-4.204-.721-2.656 0-5.11.854-7.103 2.3l-.002.003zm16.473 10.951c-2.48-2.533-6.82-4.217-11.763-4.217-4.945 0-9.285 1.684-11.764 4.217a8.987 8.987 0 0 0-.18 1.776c0 5.689 5.346 10.297 11.944 10.297 6.597 0 11.945-4.608 11.945-10.297 0-.604-.065-1.198-.182-1.776z"/>
</svg>
