<svg xmlns="http://www.w3.org/2000/svg" xmlns:xlink="http://www.w3.org/1999/xlink" width="189" height="48" viewBox="0 0 189 48">
    <defs>
        <path id="a" d="M5.615 6.22h32.268a4.276 4.276 0 0 0 3.786 2.289c2.35 0 4.256-1.9 4.256-4.24 0-2.342-1.906-4.241-4.282-4.241A4.25 4.25 0 0 0 37.7 2.68H5.615C2.508 2.681.054 5.05.054 8.041v34.236c0 3.043 2.559 5.645 5.56 5.645h34.332c3.028 0 5.482-2.524 5.482-5.645V21.985c0-3.044-2.454-5.542-5.482-5.542H19.582c-3.106 0-5.743 2.55-5.743 5.542v6.373c0 2.966 2.584 5.36 5.743 5.36h7.101a4.25 4.25 0 0 0 3.943 2.653c2.35 0 4.255-1.899 4.255-4.24a4.249 4.249 0 0 0-4.255-4.24c-1.645 0-3.081.936-3.786 2.289h-7.258c-1.044 0-2.167-.703-2.167-1.822v-6.4c0-1.04 1.045-2.003 2.167-2.003h20.364c1.07 0 1.932.885 1.932 2.004V42.25c0 1.118-.888 2.08-1.932 2.08H5.615c-1.07 0-2.01-.988-2.01-2.08V8.04c0-1.015.861-1.822 2.01-1.822zm36.028-3.98c1.123 0 2.036.91 2.036 2.028 0 1.119-.913 2.03-2.036 2.03a2.035 2.035 0 0 1-2.036-2.03c0-1.118.913-2.029 2.036-2.029zM30.652 30.1c1.122 0 2.036.911 2.036 2.03 0 1.118-.914 2.029-2.036 2.029a2.035 2.035 0 0 1-2.037-2.03c0-1.144.914-2.029 2.037-2.029z"/>
    </defs>
    <g fill="none" fill-rule="evenodd">
        <path fill="#B0B8C3" fill-rule="nonzero" d="M90.512 16.674h3.798v7.452c0 4.186-3.4 7.58-7.595 7.58s-7.596-3.394-7.596-7.58v-7.452h3.798v7.452c0 2.093 1.7 3.79 3.798 3.79a3.794 3.794 0 0 0 3.797-3.79v-7.452zm20.318 2.638a7.585 7.585 0 0 1 5.76-2.638c4.195 0 7.596 3.393 7.596 7.579v7.452h-3.798v-7.452c0-2.093-1.7-3.79-3.798-3.79a3.794 3.794 0 0 0-3.798 3.79v7.452h-3.924v-7.452c0-2.093-1.7-3.79-3.798-3.79a3.794 3.794 0 0 0-3.797 3.79v7.452h-3.798v-7.452c0-4.186 3.4-7.58 7.595-7.58a7.585 7.585 0 0 1 5.76 2.639zm24.116 1.151a3.794 3.794 0 0 0-3.798 3.79v7.452h-3.798v-7.452c0-4.186 3.4-7.58 7.596-7.58v3.79zm-58.992 3.79v12.782c0 4.185-3.4 7.578-7.595 7.578v-3.789a3.794 3.794 0 0 0 3.798-3.79v-6.216a7.573 7.573 0 0 1-3.798 1.014c-4.195 0-7.595-3.394-7.595-7.58 0-4.185 3.4-7.578 7.595-7.578s7.595 3.393 7.595 7.579zm-7.595 3.79a3.794 3.794 0 0 0 3.798-3.79c0-2.093-1.7-3.79-3.798-3.79a3.794 3.794 0 0 0-3.798 3.79c0 2.093 1.7 3.79 3.798 3.79zm76.84 3.789c-4.194 0-7.595-3.394-7.595-7.58 0-4.185 3.4-7.578 7.596-7.578 4.194 0 7.595 3.393 7.595 7.579 0 4.185-3.4 7.579-7.595 7.579zm0-3.79a3.794 3.794 0 0 0 3.798-3.79c0-2.092-1.7-3.789-3.797-3.789a3.794 3.794 0 0 0-3.798 3.79c0 2.093 1.7 3.79 3.798 3.79zm25.699-3.79v7.453H167.1v-.887a7.573 7.573 0 0 1-3.798 1.014c-4.195 0-7.595-3.394-7.595-7.58 0-4.185 3.4-7.578 7.595-7.578s7.596 3.393 7.596 7.579zm-7.596 3.79a3.794 3.794 0 0 0 3.798-3.79c0-2.092-1.7-3.789-3.798-3.789a3.794 3.794 0 0 0-3.798 3.79c0 2.093 1.7 3.79 3.798 3.79zm21.9-10.386V9.6H189v14.621c0 4.186-3.4 7.579-7.595 7.579s-7.596-3.393-7.596-7.579 3.4-7.579 7.596-7.579c1.383 0 2.68.37 3.797 1.014zm-3.797 10.354a3.794 3.794 0 0 0 3.797-3.789c0-2.093-1.7-3.79-3.797-3.79a3.794 3.794 0 0 0-3.798 3.79c0 2.093 1.7 3.79 3.798 3.79z"/>
        <g>
            <mask id="b" fill="#fff">
                <use xlink:href="#a"/>
            </mask>
            <use fill="#B0B8C3" xlink:href="#a"/>
            <path fill="#B0B8C3" fill-rule="nonzero" d="M25.691 27.136v1.222h-6.109v7.077h6.11V37.1h9.998v-9.964z" mask="url(#b)"/>
        </g>
    </g>
</svg>
