<svg xmlns="http://www.w3.org/2000/svg" width="156" height="60" viewBox="0 0 156 60">
    <path fill="#B0B8C3" fill-rule="nonzero" d="M48.524 49c.212 0 .37.162.476.377v10.246a.365.365 0 0 1-.37.377h-1.693a.365.365 0 0 1-.37-.377v-5.285c0-.323-.317-.485-.529-.215l-2.326 3.774c-.106.216-.37.216-.53 0l-2.273-3.774c-.212-.27-.53-.108-.53.215v5.285a.365.365 0 0 1-.37.377H38.37a.365.365 0 0 1-.37-.377V49.377c0-.215.159-.377.37-.377h1.64a.29.29 0 0 1 .264.162l2.909 5.122c.105.162.211.162.37 0l3.014-5.122a.29.29 0 0 1 .265-.162h1.692zm12.183.217l4.26 10.295a.343.343 0 0 1-.307.488h-1.694c-.154 0-.257-.108-.309-.217l-.667-1.734c-.051-.108-.154-.216-.308-.216h-4.364c-.154 0-.257.108-.308.216l-.616 1.734c-.051.109-.154.217-.308.217H54.34a.343.343 0 0 1-.308-.488l4.313-10.295c.051-.109.154-.217.308-.217h1.745c.154 0 .257.108.309.217zm-.052 6.502c.206 0 .41-.27.36-.487l-1.13-2.98c-.103-.272-.513-.272-.616 0l-1.13 2.98a.343.343 0 0 0 .309.487h2.207zm30.648-1.704l3.637 5.446c.151.215 0 .539-.253.539h-1.92a.276.276 0 0 1-.252-.162l-2.525-3.882c-.101-.162-.354-.162-.505 0l-1.313 1.671c0 .054-.05.162-.05.216v1.78c0 .161-.102.323-.304.323h-1.515c-.151 0-.303-.108-.303-.323v-10.3c0-.161.101-.323.303-.323h1.515c.152 0 .303.108.303.324v4.205c0 .324.354.486.556.216l3.485-4.637a.373.373 0 0 1 .252-.108h1.717c.253 0 .405.324.253.54l-3.08 4.043c-.102.108-.102.324 0 .432zm17.326 3.763c.207 0 .415.163.363.488v1.355c0 .216-.156.379-.363.379h-7.266c-.207 0-.363-.163-.363-.38V49.38c0-.217.156-.38.363-.38h6.902c.208 0 .364.163.364.38v1.354c0 .217-.156.38-.364.38h-4.618c-.208 0-.364.162-.364.379v1.571c0 .217.156.38.364.38h3.321c.208 0 .363.162.363.379v1.192c0 .217-.155.38-.363.38h-3.321c-.208 0-.364.162-.364.378V57.4c0 .217.156.38.364.38h4.982zM122.759 49c.156 0 .311.15.207.299v1.293c0 .15-.103.299-.31.299h-2.747c-.156 0-.311.099-.311.298v7.512c0 .15-.104.299-.311.299h-1.607c-.156 0-.311-.1-.311-.299V51.19a.293.293 0 0 0-.311-.298h-2.747c-.156 0-.311-.1-.311-.299v-1.293c0-.15.104-.299.311-.299h8.448zM79 53.098c0 1.456-.593 2.427-1.383 3.127a.446.446 0 0 0-.098.432l1.333 2.858c.099.215-.05.485-.296.485h-1.729c-.148 0-.247-.108-.296-.216l-1.136-2.48c-.099-.216-.197-.162-.543-.162h-1.383c-.296 0-.346.054-.346.324v2.157c0 .161-.098.323-.296.323h-1.53c-.149 0-.297-.108-.297-.323V49.377c0-.161.099-.323.296-.323C72.383 49 73.42 49 74.456 49 77.322 49 79 50.725 79 53.098zm-4.395 1.941c1.53-.108 2.222-.916 2.222-1.941 0-1.24-.987-1.887-2.271-1.941-.445-.054-.79-.054-1.136-.054-.148 0-.297.108-.297.323v3.29c0 .161.1.323.297.323.395.054.79 0 1.185 0zm79.61-26.36c.52-.519 2.133 1.503 1.717 3.213-.312 1.659-3.017 8.812-9.986 8.812-4.005 0-7.802-2.592-9.414-7.257a9.09 9.09 0 0 1-5.254-2.488c-1.664 5.184-4.473 9.797-7.697 9.797-2.913 0-4.785-2.28-5.982-5.494-.728 1.866-3.016 5.598-6.657 5.598-2.705 0-4.421-2.022-5.462-4.925-.988 1.97-3.12 4.925-6.397 4.925-2.86 0-4.837-1.815-6.085-5.132-.833 1.97-2.965 5.132-6.45 5.132-2.757 0-5.201-2.23-6.241-5.495-.104.726-2.185 5.391-5.67 5.391-2.496 0-5.253-1.762-6.605-5.39-1.56 2.384-4.733 5.39-9.57 5.39-2.81 0-5.67-1.296-7.646-3.836-1.3 1.71-3.745 3.94-6.814 3.94-4.889 0-6.917-4.976-6.917-11.145 0-4.924 1.092-10.056.728-10.418-.208-.208-2.445-.622-3.381-.882C33.704 26.865 30.167 42 15.864 42 6.606 42 0 34.329 0 24.74 0 14.786 7.074 3.175 16.644 3.175c6.033 0 8.842 5.028 8.842 7.723 0 1.452-.468 4.562-3.693 4.562-4.629 0-.572-8.864-5.15-8.864-3.64 0-9.31 7.413-9.31 17.054 0 5.701 2.705 13.373 10.195 13.373 9.882 0 13.575-13.632 13.575-19.386a4.33 4.33 0 0 1-2.288-3.784c0-.57.416-2.955 2.548-2.955 1.3 0 3.225.674 3.225 3.784v1.14c1.924.415 7.698 1.141 8.686 1.867.78.518.78 1.347.78 1.762 0 1.71-3.225 17.727 1.56 17.727 1.717 0 2.965-1.295 3.797-2.591-.728-1.659-1.144-3.577-1.144-5.858 0-7.775 5.045-12.388 9.674-12.388 2.653 0 6.294 2.125 6.294 6.427 0 3.68-2.549 9.382-9.102 11.249 1.04 1.814 2.548 3.213 4.68 3.213 4.214 0 6.554-3.732 7.49-5.909-.051-.31-.051-.622-.051-.933 0-6.686 4.785-14.047 10.766-14.047 1.56 0 2.133.415 2.133.415s.104-.726.208-.83c.884-.88 5.149 1.607 5.149 2.748 0 2.384-2.237 18.504 2.444 18.504 2.445 0 3.745-3.68 4.161-5.494-.416-2.436-.624-5.287-.624-8.553 0-3.628.208-7.412.52-10.833-2.184.57-4.317 1.037-6.45 1.037-3.692 0-3.848-3.318-2.756-3.318 3.173 0 6.346-.57 9.57-1.192.573-4.924 1.197-8.449 1.353-8.604.936-.933 5.565 1.244 5.565 3.472 0 .83-.156 2.126-.312 3.836 2.184-.363 4.421-.622 6.605-.622 3.277 0 5.15 2.022 5.15 4.147 0 2.177-1.249 3.317-2.705 3.317-1.3 0-3.069-.829-3.069-3.473 0-1.14-2.288-.777-4.16-.57-.729.104-1.457.208-2.133.311-1.144 10.108-3.017 26.488 1.248 26.488 2.653 0 4.317-3.37 4.733-5.443-.312-1.97-.416-4.043-.416-6.013 0-4.717.312-7.775.728-8.19 1.093-1.036 5.514.57 5.514 2.281 0 2.384-1.977 17.365 1.976 17.365 2.549 0 3.953-4.199 4.265-5.806-.624-3.006-.832-6.22-.832-8.967 0-3.318.104-5.91.52-6.324.988-.985 5.617.985 5.617 2.903 0 2.332-1.04 18.142 2.289 18.142 2.444 0 4.317-6.428 4.889-9.071-.884-1.71-1.352-3.629-1.352-5.34 0-4.353 1.3-6.323 2.808-6.323 2.705 0 2.913 5.546 1.613 11.352.884 1.347 2.184 2.125 3.693 2.591a23.826 23.826 0 0 1-.105-2.021c0-7.827 5.67-11.87 9.987-11.87 2.652 0 5.773 1.607 5.773 5.96 0 3.733-2.34 9.227-9.31 10.782.936 2.022 2.497 3.68 4.733 3.68 5.721 0 7.022-7.982 7.178-8.137zM57.734 18.57c-2.652 0-4.16 5.96-4.109 9.693 0 .881.156 2.021.52 3.214 4.786-1.815 6.502-12.907 3.59-12.907zM75.47 36.195c4.838 0 5.254-17.572 2.55-17.572-4.058 0-7.647 17.572-2.55 17.572zm69.697-17.52c-2.653 0-4.057 5.857-4.057 9.589 0 .726.104 1.659.364 2.592 4.889-.726 6.501-12.181 3.693-12.181z"/>
</svg>
