<svg xmlns="http://www.w3.org/2000/svg" width="69" height="60" viewBox="0 0 69 60">
    <g fill="none" fill-rule="nonzero">
        <path fill="#CCD1D9" d="M45.06 8.307a11.863 11.863 0 0 0-1.15 5.114c0 6.54 5.265 11.842 11.76 11.842.264 0 .525-.009.785-.026v15.434c0 2.649-1.874 5.823-4.195 7.094L32.422 58.628c-2.316 1.27-6.069 1.273-8.39 0L4.195 47.765C1.879 46.495 0 43.317 0 40.67V19.345c0-2.65 1.874-5.823 4.195-7.096L24.032 1.386c2.317-1.27 6.07-1.27 8.39 0l12.638 6.92zm-8.658 28.715c0 1.285.966 2.302 2.186 2.302s2.185-1.017 2.185-2.3V22.827c0-1.285-.965-2.302-2.185-2.302-1.22 0-2.186 1.017-2.186 2.302v14.194zm-3.41-6.997v-7.197c0-1.285-.967-2.302-2.187-2.302-1.22 0-2.184 1.017-2.184 2.304v7.374c0 3.319-1.618 5.024-4.284 5.024-2.67 0-4.285-1.764-4.285-5.173v-7.227c0-1.285-.966-2.302-2.186-2.302s-2.184 1.017-2.184 2.302v7.346c0 6.16 3.262 9.3 8.598 9.3 5.334 0 8.711-3.11 8.711-9.449z"/>
        <path fill="#B5BBC4" d="M55.667 26.842c-7.36 0-13.326-6.009-13.326-13.42C42.34 6.008 48.307 0 55.667 0s13.327 6.009 13.327 13.421c0 7.412-5.967 13.421-13.327 13.421zm.003-8.126c2.25 0 3.92-1.154 3.92-3.122v-.032c0-1.258-.61-1.94-1.64-2.501.785-.5 1.293-1.184 1.293-2.32v-.03c0-1.638-1.424-2.913-3.573-2.913-2.148 0-3.572 1.29-3.572 2.91v.032c0 1.137.508 1.82 1.292 2.32-1.074.515-1.64 1.273-1.64 2.562v.031c0 1.85 1.67 3.063 3.92 3.063zm0-6.429c-.886 0-1.452-.561-1.452-1.304v-.03c0-.651.538-1.228 1.452-1.228.915 0 1.453.59 1.453 1.241v.031c0 .744-.567 1.29-1.453 1.29zm0 4.503c-1.104 0-1.756-.591-1.756-1.318v-.031c0-.819.74-1.304 1.756-1.304 1.017 0 1.757.485 1.757 1.304v.03c0 .742-.653 1.319-1.757 1.319z"/>
    </g>
</svg>
