<svg xmlns="http://www.w3.org/2000/svg" width="132" height="24" viewBox="0 0 132 24">
    <g fill="none" fill-rule="nonzero">
        <path fill="#282629" d="M34.455 19.102a1.086 1.086 0 0 1-.315-.781V8.606c0-.303.105-.56.315-.77.217-.21.478-.314.781-.314.296 0 .552.105.77.315.21.21.315.466.315.77v9.714a1.072 1.072 0 0 1-1.085 1.096c-.303 0-.564-.105-.781-.315zm1.644-13.003a1.178 1.178 0 0 1-.863.362c-.342 0-.633-.12-.874-.362A1.178 1.178 0 0 1 34 5.236c0-.342.12-.633.362-.874.24-.241.532-.362.874-.362.334 0 .622.12.863.362.241.24.362.532.362.874 0 .334-.12.622-.362.863zm9.624 9.621c.163-.482.506-.723 1.026-.723.366 0 .661.152.887.455.217.295.268.618.151.968a4.276 4.276 0 0 1-1.586 2.146 4.256 4.256 0 0 1-2.589.85h-.07c-1.22 0-2.262-.43-3.125-1.294-.863-.863-1.294-1.904-1.294-3.125V11.93c0-1.213.431-2.25 1.294-3.114.863-.863 1.905-1.294 3.125-1.294h.07c.957 0 1.82.28 2.59.84a4.272 4.272 0 0 1 1.585 2.157c.117.342.066.665-.151.968a1.065 1.065 0 0 1-.887.443c-.52 0-.863-.237-1.026-.711a2.141 2.141 0 0 0-.804-1.097 2.182 2.182 0 0 0-1.307-.42h-.07a2.16 2.16 0 0 0-1.586.654c-.435.435-.653.96-.653 1.574v3.067c0 .622.218 1.15.653 1.586.416.427.99.664 1.586.653h.07a2.15 2.15 0 0 0 1.307-.431c.388-.28.657-.642.804-1.085zm12.272-1.154v-2.228c0-.738-.265-1.368-.793-1.889a2.56 2.56 0 0 0-1.878-.781h-.082c-.738 0-1.368.26-1.889.781-.52.52-.781 1.15-.781 1.89v2.227c0 .738.26 1.368.781 1.889.521.52 1.15.781 1.89.781h.081c.73 0 1.357-.26 1.878-.781.528-.521.793-1.15.793-1.89v.001zm-2.753-7.08h.082c1.337 0 2.48.475 3.429 1.424.948.948 1.422 2.091 1.422 3.428v2.228c0 1.337-.474 2.48-1.422 3.428-.949.949-2.092 1.423-3.429 1.423h-.082c-1.337 0-2.48-.474-3.428-1.423-.949-.948-1.423-2.091-1.423-3.428v-2.228c0-1.337.474-2.48 1.423-3.428.948-.949 2.091-1.423 3.428-1.423v-.001zm12.447 0h.081c1.337 0 2.48.475 3.429 1.424.948.948 1.423 2.091 1.423 3.428v5.983c0 .303-.11.563-.327.781-.21.21-.466.315-.77.315-.303 0-.56-.105-.77-.315a1.086 1.086 0 0 1-.314-.781v-5.983c0-.738-.265-1.368-.793-1.889a2.56 2.56 0 0 0-1.878-.781h-.081c-.739 0-1.369.26-1.89.781-.52.52-.78 1.15-.78 1.89v5.982c0 .303-.106.563-.316.781a1.07 1.07 0 0 1-.77.315c-.303 0-.563-.105-.78-.315a1.086 1.086 0 0 1-.316-.781V8.57a1.072 1.072 0 0 1 1.097-1.084c.56 0 .91.276 1.05.828a4.726 4.726 0 0 1 2.705-.828zm10.207 4.07A1.3 1.3 0 0 0 78.91 12c1.322 0 2.395.466 3.22 1.4.83.956 1.084 2.036.757 3.241-.218.817-.707 1.485-1.47 2.006a4.416 4.416 0 0 1-2.542.77h-.023a4.346 4.346 0 0 1-2.239-.595c-.66-.396-1.154-.917-1.481-1.563-.187-.357-.163-.707.07-1.05.241-.333.58-.5 1.015-.5.505 0 .878.221 1.12.664.302.575.808.863 1.515.863h.058c.506 0 .93-.17 1.272-.513.334-.35.47-.754.408-1.213-.055-.38-.253-.7-.595-.956a1.95 1.95 0 0 0-1.155-.373c-1.205-.024-2.173-.47-2.903-1.341-.747-.887-.953-1.882-.618-2.986.217-.715.664-1.302 1.34-1.76a4.06 4.06 0 0 1 2.275-.665h.035c1.461 0 2.55.583 3.265 1.749.225.365.222.727-.012 1.084-.233.358-.579.537-1.038.537-.458 0-.816-.198-1.072-.595-.257-.396-.638-.595-1.143-.595h-.024c-.318 0-.602.086-.85.257a1.117 1.117 0 0 0-.48.688c-.085.38.009.715.28 1.003l.001-.001zm10.09.806v2.227c0 .739.26 1.368.782 1.89.52.52 1.15.78 1.889.78h.082c.73 0 1.356-.26 1.877-.78a2.556 2.556 0 0 0 .793-1.89v-2.227c0-.74-.264-1.369-.793-1.89a2.56 2.56 0 0 0-1.877-.781h-.082c-.739 0-1.368.26-1.89.781-.52.521-.78 1.15-.78 1.89h-.001zm-.314 11.323c-.218.21-.475.315-.77.315-.303 0-.564-.105-.781-.315a1.086 1.086 0 0 1-.315-.781V8.594a1.072 1.072 0 0 1 1.096-1.084c.56 0 .91.276 1.05.828a4.726 4.726 0 0 1 2.705-.828h.082c1.337 0 2.48.474 3.428 1.423.949.948 1.423 2.091 1.423 3.429v2.227c0 1.337-.474 2.48-1.423 3.428-.948.949-2.091 1.423-3.428 1.423h-.082a4.73 4.73 0 0 1-2.67-.804v4.268c0 .303-.106.563-.315.781zm17.717-9.12v-2.227c0-.738-.264-1.368-.793-1.889a2.56 2.56 0 0 0-1.878-.781h-.081c-.739 0-1.369.26-1.89.781-.52.52-.78 1.15-.78 1.89v2.227c0 .738.26 1.368.78 1.889.521.52 1.151.781 1.89.781h.081a2.56 2.56 0 0 0 1.878-.781c.529-.521.793-1.15.793-1.89zm.035-6.25c.132-.552.482-.828 1.05-.828.303 0 .56.105.77.315.217.217.326.474.326.77v9.749c0 .303-.11.563-.327.781-.21.21-.466.315-.77.315-.567 0-.917-.276-1.05-.828a4.726 4.726 0 0 1-2.705.828h-.081c-1.337 0-2.48-.474-3.429-1.423-.948-.948-1.423-2.091-1.423-3.428v-2.228c0-1.337.475-2.48 1.423-3.428.949-.949 2.092-1.423 3.429-1.423h.081c.98 0 1.882.276 2.706.828zm11.408 7.405c.164-.482.506-.723 1.027-.723.365 0 .66.152.886.455.217.295.268.618.151.968a4.276 4.276 0 0 1-1.586 2.146 4.256 4.256 0 0 1-2.589.85h-.07c-1.22 0-2.262-.43-3.125-1.294-.863-.863-1.294-1.904-1.294-3.125V11.93c0-1.213.431-2.25 1.294-3.114.863-.863 1.905-1.294 3.126-1.294h.07c.956 0 1.819.28 2.588.84a4.272 4.272 0 0 1 1.586 2.157c.117.342.066.665-.151.968a1.064 1.064 0 0 1-.886.443c-.521 0-.863-.237-1.027-.711a2.141 2.141 0 0 0-.804-1.097 2.182 2.182 0 0 0-1.307-.42h-.07a2.16 2.16 0 0 0-1.585.654c-.436.435-.654.96-.654 1.574v3.067c0 .622.218 1.15.654 1.586.416.427.99.664 1.586.653h.07c.482 0 .917-.144 1.306-.431.388-.28.657-.642.804-1.085zm6.849-3.347v.012h5.41a2.662 2.662 0 0 0-.78-1.89c-.53-.52-1.155-.78-1.878-.78h-.082c-.738 0-1.368.26-1.889.78a2.56 2.56 0 0 0-.781 1.878zm7.522-.828c.054.272.081.548.081.828 0 .397-.1.762-.303 1.096-.42.723-1.046 1.085-1.877 1.085l-5.423.012c0 .738.26 1.368.781 1.889.521.52 1.15.781 1.89.781h.081c.902 0 1.621-.37 2.157-1.108.311-.427.72-.552 1.225-.373.35.117.58.35.688.7.109.357.054.684-.163.98-.972 1.321-2.274 1.982-3.907 1.982h-.082c-1.329 0-2.468-.47-3.416-1.411-.941-.933-1.42-2.064-1.435-3.394v-2.239c0-1.337.474-2.476 1.423-3.417.948-.948 2.091-1.422 3.428-1.422h.082c1.353 0 2.503.482 3.452 1.446.45.458.797.983 1.038 1.574.132.319.225.65.28.991z"/>
        <path fill="#FF506B" d="M10.237 10.003l1.259-4.7a.502.502 0 0 1 .016-.103L12.806.37a.5.5 0 0 1 .613-.353l5.795 1.553a.5.5 0 0 1 .354.612l-1.294 4.83a.5.5 0 0 1-.613.354l-4.819-1.292-1.072 4.002c5.2.627 9.23 5.055 9.23 10.424a.5.5 0 0 1-.5.5H.5a.5.5 0 0 1-.5-.5c0-5.71 4.56-10.357 10.237-10.497zM14 18a2 2 0 1 0 0-4 2 2 0 0 0 0 4zm0-1a1 1 0 1 1 0-2 1 1 0 0 1 0 2zm-9.5 3a1.5 1.5 0 1 0 0-3 1.5 1.5 0 0 0 0 3zM7 13a1 1 0 1 0 0-2 1 1 0 0 0 0 2zm12.887-8.144l1.449.388a.5.5 0 0 1 .353.613l-1.294 4.83a.5.5 0 0 1-.612.353l-5.796-1.553a.5.5 0 0 1-.353-.612l.388-1.45 3.38.907A1.5 1.5 0 0 0 19.24 7.27l.647-2.415v.001z"/>
    </g>
</svg>
